<?xml version="1.0" encoding="iso-8859-1"?>
<!DOCTYPE svg PUBLIC "-//W3C//DTD SVG 1.0//EN" "http://www.w3.org/TR/2001/REC-SVG-20010904/DTD/svg10.dtd">
<!-- Creator: CorelDRAW -->
<svg xmlns="http://www.w3.org/2000/svg" xmlns:odm="http://product.corel.com/CGS/11/cddns/" xmlns:corel-charset="http://product.corel.com/CGS/11/cddns/" xml:space="preserve" width="8.5in" height="11in" style="shape-rendering:geometricPrecision; text-rendering:geometricPrecision; image-rendering:optimizeQuality; fill-rule:evenodd"
     viewBox="0 0 8500 11000">
 <defs>
  <style type="text/css">
   <![CDATA[
    .str0 {stroke:#2A1870;stroke-width:3}
    .str1 {stroke:#7EA535;stroke-width:14}
    .fil3 {fill:none}
    .fil4 {fill:#2A1870}
    .fil5 {fill:#7EA535}
    .fil0 {fill:url(#id2)}
    .fil1 {fill:url(#id3)}
    .fil2 {fill:url(#id4)}
   ]]>
  </style>
  <linearGradient id="id2" gradientUnits="userSpaceOnUse" x1="4139" y1="1642" x2="2125" y2="1642">
   <stop offset="0" style="stop-color:#C2C1C1"/>
   <stop offset="0.619608" style="stop-color:#FEFEFE"/>
   <stop offset="1" style="stop-color:#FFFFFF"/>
  </linearGradient>
  <linearGradient id="id3" gradientUnits="userSpaceOnUse" x1="2748" y1="1816" x2="1432" y2="3370">
   <stop offset="0" style="stop-color:#E77817"/>
   <stop offset="1" style="stop-color:#FFF500"/>
  </linearGradient>
  <radialGradient id="id4" gradientUnits="userSpaceOnUse" cx="4209" cy="2080" r="60" fx="4209" fy="2080">
   <stop offset="0" style="stop-color:#E77817"/>
   <stop offset="0.478431" style="stop-color:#F3B70B"/>
   <stop offset="1" style="stop-color:#FFF500"/>
  </radialGradient>
 </defs>
 <g id="Layer_x0020_1">
  <defs>
   <mask id="id0">
    <defs>
  <linearGradient id="id1" gradientUnits="userSpaceOnUse" x1="1944" y1="2450" x2="2236" y2="2736">
   <stop offset="0" style="stop-opacity:1; stop-color:white"/>
   <stop offset="1" style="stop-opacity:0; stop-color:white"/>
  </linearGradient>
    </defs>
    <rect style="fill:url(#id1)" x="1368" y="1870" width="1445" height="1445"/>
   </mask>
  </defs>
  <path class="fil0" d="M4139 2074c-510,-200 -960,-258 -1466,42l-88 -54c532,-355 1186,-173 1554,12z"/>
  <path class="fil1" style="mask:url(#id0)" d="M2090 1870c398,0 723,325 723,723 0,398 -325,722 -723,722 -398,0 -722,-324 -722,-722 0,-398 324,-723 722,-723z"/>
  <circle class="fil2" cx="4240" cy="2098" r="60"/>
  <g>
   <path class="fil3 str0" d="M2146 2952c-14,0 -22,0 -25,0 -3,0 -11,0 -24,0 -19,-64 -41,-128 -63,-192 -23,-64 -46,-128 -71,-193 -16,-44 -33,-87 -50,-131 -17,-44 -34,-88 -51,-132 -7,-16 -13,-23 -19,-22 -6,0 -9,8 -10,24 -2,44 -3,89 -3,133 -1,45 -1,89 0,133 0,64 1,128 3,191 1,64 3,126 4,189 -11,0 -22,0 -33,0 -10,0 -21,0 -33,0 2,-37 4,-74 5,-112 3,-95 4,-185 4,-269 0,-90 -1,-180 -4,-270 -1,-18 -2,-36 -2,-54 -1,-18 -1,-35 -3,-53 9,0 17,0 25,0 7,0 16,0 24,0 3,0 5,0 8,0 3,0 6,0 9,0 8,0 16,0 24,0 8,0 16,0 24,0 19,64 39,125 60,182 20,56 41,112 63,168 15,39 30,77 45,116 16,39 32,80 48,121 9,25 16,38 21,38 4,-1 11,-14 21,-41 15,-41 30,-81 45,-119 15,-38 30,-76 45,-113 21,-56 43,-113 64,-170 21,-57 41,-117 60,-182 8,0 15,0 22,0 8,0 15,0 23,0 3,0 7,0 10,0 4,0 8,0 11,0 8,0 15,0 22,0 8,0 15,0 23,0 -4,67 -6,133 -7,199 -1,66 -2,132 -1,197 0,61 1,122 2,183 2,60 4,120 6,179 -11,0 -22,0 -33,0 -11,0 -22,0 -33,0 3,-58 5,-117 6,-176 1,-58 1,-117 1,-177 -1,-48 -1,-97 -2,-146 -1,-49 -1,-97 -1,-146 0,-11 -3,-18 -8,-21 -6,-2 -12,4 -17,18 -37,88 -71,176 -104,263 -25,64 -48,128 -70,193 -22,64 -43,128 -61,192z"/>
  </g>
  <g>
   <path class="fil3 str0" d="M3194 2651c0,16 -1,32 -3,49 -3,17 -7,36 -13,55 -6,19 -13,36 -21,51 -10,18 -21,33 -30,46 -11,13 -24,27 -38,39 -13,12 -27,22 -44,32 -15,10 -32,18 -51,25 -17,6 -36,11 -55,14 -20,4 -40,6 -62,6 -22,-1 -45,-3 -67,-8 -18,-3 -36,-8 -54,-15 -17,-7 -33,-15 -48,-24 -14,-8 -28,-19 -43,-31 -13,-12 -25,-25 -35,-38 -11,-13 -21,-28 -29,-43 -9,-16 -16,-32 -21,-49 -6,-15 -10,-32 -13,-52 -3,-19 -5,-37 -5,-55 0,-15 1,-31 4,-48 2,-16 6,-34 12,-54 7,-19 14,-35 22,-50 8,-15 18,-30 29,-45 11,-14 23,-26 37,-39 13,-11 28,-22 44,-32 18,-10 35,-18 51,-23 17,-7 36,-12 56,-15 18,-4 38,-6 60,-6 20,0 39,2 58,5 20,4 38,9 55,14 16,6 32,14 50,23 17,11 32,21 44,31 14,12 27,25 38,37 10,13 20,27 30,44 9,16 17,32 23,48 6,15 10,33 14,52 4,19 5,37 5,56zm-53 2c0,-22 -3,-42 -7,-60 -4,-15 -8,-30 -14,-43 -9,-22 -21,-42 -36,-61 -12,-16 -26,-31 -43,-44 -17,-13 -34,-24 -52,-32 -18,-9 -37,-15 -57,-20 -20,-5 -40,-7 -59,-7 -21,0 -43,2 -63,7 -22,6 -42,13 -61,24 -19,11 -38,25 -54,41 -17,17 -32,37 -44,59 -7,13 -14,27 -19,43 -6,16 -10,31 -12,45 -3,15 -4,31 -4,48 0,15 1,31 3,47 2,15 6,31 11,46 5,15 10,29 18,43 7,14 15,27 24,38 9,13 19,24 30,34 10,9 22,18 36,27 13,8 26,15 41,21 15,6 31,10 47,13 17,4 34,5 51,5 22,1 43,-1 65,-6 17,-5 32,-9 44,-15 11,-5 25,-12 40,-21 11,-8 23,-18 34,-28 10,-11 20,-22 29,-33 10,-15 17,-27 22,-38 7,-14 13,-28 17,-42 4,-14 7,-29 10,-44 2,-15 3,-30 3,-47z"/>
  </g>
  <g>
   <path class="fil3 str0" d="M3571 2958c-19,-42 -42,-89 -68,-140 -21,-39 -45,-84 -72,-132 -7,-14 -12,-22 -16,-24 -4,-3 -15,-4 -34,-4 -18,-1 -36,-1 -52,0 -17,0 -28,1 -31,4 -4,2 -5,11 -5,26 0,16 0,32 1,47 0,16 0,31 1,47 0,29 1,59 1,88 1,30 2,59 4,89 -9,0 -18,0 -27,0 -9,0 -17,0 -26,0 1,-33 3,-67 4,-100 0,-33 1,-67 2,-100 1,-79 1,-153 0,-222 -1,-31 -2,-62 -3,-92 -1,-31 -2,-62 -3,-93l152 0c15,0 29,0 44,0 15,0 28,2 39,4 21,4 39,12 55,23 16,11 29,25 39,41 13,23 20,50 20,81 0,19 -3,36 -8,52 -4,11 -9,22 -16,31 -6,9 -13,18 -20,26 -8,8 -16,15 -26,20 -9,5 -20,10 -33,14 -12,4 -19,7 -20,11 -1,3 2,13 9,28 18,38 36,73 53,105 16,29 32,58 48,86 16,29 33,57 50,84l-62 0zm-244 -566c-14,1 -23,3 -26,5 -3,2 -4,9 -4,22 -1,14 -1,28 -2,42 0,14 0,28 0,41 -1,14 -1,28 -1,41 0,14 0,28 0,42 0,15 1,25 4,28 2,3 11,4 27,5 11,1 22,1 33,1 12,0 24,0 36,0 21,0 39,-2 54,-5 16,-3 32,-8 46,-15 20,-11 34,-27 43,-46 6,-15 9,-32 9,-52 0,-15 -2,-29 -7,-42 -7,-18 -19,-33 -37,-45 -25,-15 -59,-23 -102,-23 -12,0 -25,0 -37,0 -12,0 -24,1 -36,1z"/>
  </g>
  <g>
   <path class="fil3 str0" d="M4064 2959c-58,-105 -117,-207 -176,-306 -44,-72 -87,-143 -131,-213 -11,-16 -19,-23 -24,-20 -6,3 -8,10 -8,22 -1,38 -1,77 -2,115 0,38 0,76 0,114 1,98 2,193 5,288 -9,0 -17,0 -26,0 -9,0 -18,0 -26,0 4,-95 6,-193 6,-294 0,-107 -2,-211 -6,-313 14,0 28,0 42,0 13,0 28,0 43,0 24,45 49,90 76,135 26,45 53,89 80,134 21,34 42,69 63,103 22,35 43,69 64,103 20,33 30,30 31,-9 0,-36 0,-72 0,-108 0,-37 0,-73 0,-110 0,-41 -1,-82 -2,-123 -1,-41 -2,-83 -4,-125 9,0 18,0 27,0 8,0 17,0 26,0 -4,89 -6,178 -6,266 -1,57 0,113 1,171 1,57 3,113 5,170l-58 0z"/>
  </g>
  <g>
   <path class="fil3 str0" d="M4255 2958l-50 0c3,-101 4,-202 4,-302 1,-102 -1,-203 -4,-305l50 0c-3,104 -5,205 -5,304 0,98 2,200 5,303z"/>
  </g>
  <g>
   <path class="fil3 str0" d="M4729 2959c-58,-105 -117,-207 -176,-306 -44,-72 -88,-143 -132,-213 -10,-16 -18,-23 -24,-20 -5,3 -7,10 -7,22 -1,38 -2,77 -2,115 0,38 0,76 0,114 0,98 2,193 5,288 -9,0 -18,0 -26,0 -9,0 -18,0 -26,0 4,-95 6,-193 6,-294 0,-107 -2,-211 -6,-313 14,0 28,0 42,0 13,0 28,0 43,0 24,45 49,90 75,135 27,45 54,89 81,134 21,34 42,69 63,103 21,35 43,69 64,103 20,33 30,30 31,-9 0,-36 0,-72 0,-108 0,-37 0,-73 0,-110 0,-41 -1,-82 -2,-123 -1,-41 -2,-83 -4,-125 9,0 18,0 27,0 8,0 17,0 26,0 -4,89 -6,178 -6,266 -1,57 0,113 1,171 1,57 3,113 5,170l-58 0z"/>
  </g>
  <g>
   <path class="fil3 str0" d="M5410 2891c-14,10 -26,18 -36,23 -15,9 -29,16 -42,22 -18,8 -35,14 -51,18 -19,5 -38,9 -58,11 -12,1 -24,2 -37,2 -20,1 -40,0 -60,-3 -20,-3 -39,-7 -56,-13 -18,-6 -35,-13 -52,-21 -17,-9 -33,-19 -46,-30 -14,-11 -28,-23 -40,-37 -13,-14 -23,-29 -32,-44 -9,-15 -17,-32 -24,-50 -6,-17 -11,-36 -14,-57 -3,-19 -5,-39 -4,-60 0,-18 2,-37 6,-57 3,-18 8,-36 14,-52 6,-17 13,-33 22,-48 8,-14 17,-28 29,-42 11,-14 23,-26 36,-36 13,-11 27,-22 43,-30 14,-9 30,-16 48,-23 14,-5 32,-10 53,-15 20,-4 42,-6 67,-6 29,-1 56,0 80,3 23,3 46,9 68,16 14,5 28,12 45,20l-1 62c-10,-7 -19,-13 -28,-19 -8,-5 -18,-10 -29,-16 -1,0 -1,-1 -2,-1 -1,0 -2,-1 -3,-1 -2,-1 -4,-2 -5,-3 -2,-1 -4,-1 -5,-2 -3,-1 -5,-1 -5,-2 -10,-4 -24,-8 -41,-12 -15,-3 -31,-5 -49,-6 -12,-1 -20,-1 -27,-1 -16,0 -32,2 -49,5 -16,3 -31,7 -45,13 -13,5 -27,12 -41,20 -13,8 -25,17 -36,27 -11,10 -22,21 -32,33 -9,13 -18,26 -24,39 -8,14 -14,28 -19,42 -6,18 -10,34 -12,47 -2,14 -4,29 -4,45 -1,16 1,32 3,49 2,16 6,32 11,47 5,16 12,30 19,43 7,12 15,25 26,38 9,12 20,23 31,33 12,10 24,20 38,27 12,8 26,15 42,21 15,5 30,9 47,12 19,4 38,5 58,5 23,-1 46,-3 68,-9 18,-4 36,-10 54,-18 16,-8 31,-17 43,-27 5,-4 8,-9 8,-15 0,-5 1,-12 1,-19 1,-37 1,-74 1,-109 -1,-36 -3,-73 -8,-113l56 -1c-3,50 -4,96 -4,139 0,43 2,89 4,136z"/>
  </g>
  <g>
   <path class="fil3 str0" d="M5865 2287c-18,-11 -34,-21 -48,-29 -15,-8 -32,-14 -52,-19 -36,-9 -71,-12 -103,-9 -27,4 -51,13 -72,28 -17,14 -30,30 -38,48 -8,17 -13,37 -13,59 0,29 7,52 21,70 13,18 37,35 72,51 12,5 30,12 55,22 10,4 15,6 16,7 19,6 34,11 46,16 35,14 63,29 85,46 24,19 42,41 54,65 14,29 21,62 21,100 0,27 -4,54 -12,78 -13,37 -36,67 -68,91 -21,16 -45,28 -71,36 -33,11 -69,16 -107,17 -44,0 -80,-4 -109,-12 -16,-4 -30,-9 -42,-15 -11,-6 -23,-11 -34,-16l-1 -78c17,12 32,22 48,32 15,10 30,18 46,23 23,9 53,14 89,14 23,0 45,-2 66,-8 28,-6 52,-18 74,-33 23,-18 39,-41 48,-67 6,-15 9,-33 9,-56 0,-26 -4,-50 -14,-71 -10,-20 -25,-37 -45,-51 -13,-10 -31,-19 -55,-30 -10,-4 -21,-8 -32,-12 -11,-4 -22,-9 -33,-13 -14,-5 -28,-10 -41,-15 -14,-6 -26,-11 -39,-18 -35,-16 -62,-36 -79,-59 -21,-28 -32,-63 -32,-107 0,-23 3,-44 10,-65 10,-31 27,-57 52,-78 31,-26 71,-42 121,-48 40,-4 81,-2 123,7 15,3 29,6 44,10 14,4 28,10 40,17l0 72z"/>
  </g>
  <g>
   <path class="fil3 str0" d="M6095 2421c0,-14 -2,-23 -5,-25 -3,-2 -12,-4 -27,-4 -23,1 -44,1 -62,2 -18,0 -40,1 -67,2l0 -44c64,3 126,4 187,4 61,0 124,-1 188,-4l0 44c-26,-1 -47,-2 -66,-3 -17,0 -38,-1 -60,-1 -17,0 -27,2 -30,5 -4,2 -6,10 -6,22 -1,31 -2,61 -2,91 -1,30 -1,59 -1,89 -1,38 -1,76 -1,114 -1,38 0,76 1,113 0,50 1,94 3,132l-54 0c1,-20 1,-41 2,-62 0,-22 1,-43 1,-64 1,-39 2,-77 2,-116 1,-38 1,-77 1,-116 0,-56 -1,-116 -4,-179z"/>
  </g>
  <g>
   <path class="fil3 str0" d="M6642 2351c14,50 30,100 49,149 19,48 37,97 54,144 19,52 38,104 59,157 22,53 44,105 68,156l-59 0c-9,-26 -18,-53 -28,-81 -10,-29 -22,-59 -34,-92 -7,-19 -14,-30 -20,-32 -6,-2 -22,-3 -48,-4 -27,-2 -55,-2 -84,-3 -28,0 -56,1 -84,2 -27,2 -44,3 -50,4 -6,2 -14,13 -23,34 -11,29 -22,57 -32,87 -10,29 -19,58 -29,85l-59 0c24,-51 46,-102 67,-155 21,-53 41,-104 60,-156 17,-47 35,-96 54,-145 19,-50 36,-100 50,-149 13,0 29,0 47,0 19,0 33,0 42,-1zm-154 314c-7,20 -10,31 -8,34 2,3 14,5 37,7 56,3 110,3 161,-1 21,-2 33,-4 35,-8 2,-4 -1,-16 -8,-38 -33,-88 -63,-167 -93,-238 -10,-21 -20,-21 -29,0 -16,32 -32,69 -48,112 -17,43 -33,87 -47,132z"/>
  </g>
  <g>
   <path class="fil3 str0" d="M7221 2958c-20,-42 -42,-89 -68,-140 -21,-39 -45,-84 -72,-132 -7,-14 -13,-22 -17,-24 -4,-3 -15,-4 -33,-4 -19,-1 -36,-1 -52,0 -18,0 -28,1 -32,4 -3,2 -5,11 -5,26 1,16 1,32 1,47 0,16 1,31 1,47 1,29 1,59 2,88 1,30 2,59 3,89 -9,0 -18,0 -26,0 -9,0 -18,0 -27,0 2,-33 3,-67 4,-100 1,-33 2,-67 2,-100 1,-79 1,-153 0,-222 -1,-31 -2,-62 -3,-92 0,-31 -1,-62 -3,-93l153 0c14,0 29,0 44,0 15,0 28,2 39,4 20,4 39,12 55,23 15,11 28,25 38,41 13,23 20,50 20,81 0,19 -3,36 -8,52 -4,11 -9,22 -15,31 -7,9 -13,18 -21,26 -8,8 -16,15 -25,20 -10,5 -21,10 -34,14 -12,4 -18,7 -19,11 -1,3 2,13 9,28 18,38 35,73 53,105 15,29 31,58 47,86 17,29 33,57 50,84l-61 0zm-245 -566c-14,1 -22,3 -25,5 -3,2 -5,9 -5,22 0,14 -1,28 -1,42 0,14 -1,28 -1,41 0,14 -1,28 -1,41 0,14 0,28 0,42 0,15 1,25 4,28 3,3 11,4 27,5 11,1 22,1 34,1 11,0 23,0 36,0 21,0 39,-2 53,-5 17,-3 32,-8 47,-15 19,-11 33,-27 42,-46 7,-15 10,-32 10,-52 0,-15 -3,-29 -8,-42 -6,-18 -18,-33 -36,-45 -25,-15 -59,-23 -103,-23 -12,0 -24,0 -36,0 -13,0 -25,1 -37,1z"/>
  </g>
  <path class="fil4" d="M2146 2952c-14,0 -22,0 -25,0 -3,0 -11,0 -24,0 -19,-64 -41,-128 -63,-192 -23,-64 -46,-128 -71,-193 -16,-44 -33,-87 -50,-131 -17,-44 -34,-88 -51,-132 -7,-16 -13,-23 -19,-22 -6,0 -9,8 -10,24 -2,44 -3,89 -3,133 -1,45 -1,89 0,133 0,64 1,128 3,191 1,64 3,126 4,189 -11,0 -22,0 -33,0 -10,0 -21,0 -33,0 2,-37 4,-74 5,-112 3,-95 4,-185 4,-269 0,-90 -1,-180 -4,-270 -1,-18 -2,-36 -2,-54 -1,-18 -1,-35 -3,-53 9,0 17,0 25,0 7,0 16,0 24,0 3,0 5,0 8,0 3,0 6,0 9,0 8,0 16,0 24,0 8,0 16,0 24,0 19,64 39,125 60,182 20,56 41,112 63,168 15,39 30,77 45,116 16,39 32,80 48,121 9,25 16,38 21,38 4,-1 11,-14 21,-41 15,-41 30,-81 45,-119 15,-38 30,-76 45,-113 21,-56 43,-113 64,-170 21,-57 41,-117 60,-182 8,0 15,0 22,0 8,0 15,0 23,0 3,0 7,0 10,0 4,0 8,0 11,0 8,0 15,0 22,0 8,0 15,0 23,0 -4,67 -6,133 -7,199 -1,66 -2,132 -1,197 0,61 1,122 2,183 2,60 4,120 6,179 -11,0 -22,0 -33,0 -11,0 -22,0 -33,0 3,-58 5,-117 6,-176 1,-58 1,-117 1,-177 -1,-48 -1,-97 -2,-146 -1,-49 -1,-97 -1,-146 0,-11 -3,-18 -8,-21 -6,-2 -12,4 -17,18 -37,88 -71,176 -104,263 -25,64 -48,128 -70,193 -22,64 -43,128 -61,192z"/>
  <path class="fil4" d="M3194 2651c0,16 -1,32 -3,49 -3,17 -7,36 -13,55 -6,19 -13,36 -21,51 -10,18 -21,33 -30,46 -11,13 -24,27 -38,39 -13,12 -27,22 -44,32 -15,10 -32,18 -51,25 -17,6 -36,11 -55,14 -20,4 -40,6 -62,6 -22,-1 -45,-3 -67,-8 -18,-3 -36,-8 -54,-15 -17,-7 -33,-15 -48,-24 -14,-8 -28,-19 -43,-31 -13,-12 -25,-25 -35,-38 -11,-13 -21,-28 -29,-43 -9,-16 -16,-32 -21,-49 -6,-15 -10,-32 -13,-52 -3,-19 -5,-37 -5,-55 0,-15 1,-31 4,-48 2,-16 6,-34 12,-54 7,-19 14,-35 22,-50 8,-15 18,-30 29,-45 11,-14 23,-26 37,-39 13,-11 28,-22 44,-32 18,-10 35,-18 51,-23 17,-7 36,-12 56,-15 18,-4 38,-6 60,-6 20,0 39,2 58,5 20,4 38,9 55,14 16,6 32,14 50,23 17,11 32,21 44,31 14,12 27,25 38,37 10,13 20,27 30,44 9,16 17,32 23,48 6,15 10,33 14,52 4,19 5,37 5,56zm-53 2c0,-22 -3,-42 -7,-60 -4,-15 -8,-30 -14,-43 -9,-22 -21,-42 -36,-61 -12,-16 -26,-31 -43,-44 -17,-13 -34,-24 -52,-32 -18,-9 -37,-15 -57,-20 -20,-5 -40,-7 -59,-7 -21,0 -43,2 -63,7 -22,6 -42,13 -61,24 -19,11 -38,25 -54,41 -17,17 -32,37 -44,59 -7,13 -14,27 -19,43 -6,16 -10,31 -12,45 -3,15 -4,31 -4,48 0,15 1,31 3,47 2,15 6,31 11,46 5,15 10,29 18,43 7,14 15,27 24,38 9,13 19,24 30,34 10,9 22,18 36,27 13,8 26,15 41,21 15,6 31,10 47,13 17,4 34,5 51,5 22,1 43,-1 65,-6 17,-5 32,-9 44,-15 11,-5 25,-12 40,-21 11,-8 23,-18 34,-28 10,-11 20,-22 29,-33 10,-15 17,-27 22,-38 7,-14 13,-28 17,-42 4,-14 7,-29 10,-44 2,-15 3,-30 3,-47z"/>
  <path class="fil4" d="M3571 2958c-19,-42 -42,-89 -68,-140 -21,-39 -45,-84 -72,-132 -7,-14 -12,-22 -16,-24 -4,-3 -15,-4 -34,-4 -18,-1 -36,-1 -52,0 -17,0 -28,1 -31,4 -4,2 -5,11 -5,26 0,16 0,32 1,47 0,16 0,31 1,47 0,29 1,59 1,88 1,30 2,59 4,89 -9,0 -18,0 -27,0 -9,0 -17,0 -26,0 1,-33 3,-67 4,-100 0,-33 1,-67 2,-100 1,-79 1,-153 0,-222 -1,-31 -2,-62 -3,-92 -1,-31 -2,-62 -3,-93l152 0c15,0 29,0 44,0 15,0 28,2 39,4 21,4 39,12 55,23 16,11 29,25 39,41 13,23 20,50 20,81 0,19 -3,36 -8,52 -4,11 -9,22 -16,31 -6,9 -13,18 -20,26 -8,8 -16,15 -26,20 -9,5 -20,10 -33,14 -12,4 -19,7 -20,11 -1,3 2,13 9,28 18,38 36,73 53,105 16,29 32,58 48,86 16,29 33,57 50,84l-62 0zm-244 -566c-14,1 -23,3 -26,5 -3,2 -4,9 -4,22 -1,14 -1,28 -2,42 0,14 0,28 0,41 -1,14 -1,28 -1,41 0,14 0,28 0,42 0,15 1,25 4,28 2,3 11,4 27,5 11,1 22,1 33,1 12,0 24,0 36,0 21,0 39,-2 54,-5 16,-3 32,-8 46,-15 20,-11 34,-27 43,-46 6,-15 9,-32 9,-52 0,-15 -2,-29 -7,-42 -7,-18 -19,-33 -37,-45 -25,-15 -59,-23 -102,-23 -12,0 -25,0 -37,0 -12,0 -24,1 -36,1z"/>
  <path class="fil4" d="M4064 2959c-58,-105 -117,-207 -176,-306 -44,-72 -87,-143 -131,-213 -11,-16 -19,-23 -24,-20 -6,3 -8,10 -8,22 -1,38 -1,77 -2,115 0,38 0,76 0,114 1,98 2,193 5,288 -9,0 -17,0 -26,0 -9,0 -18,0 -26,0 4,-95 6,-193 6,-294 0,-107 -2,-211 -6,-313 14,0 28,0 42,0 13,0 28,0 43,0 24,45 49,90 76,135 26,45 53,89 80,134 21,34 42,69 63,103 22,35 43,69 64,103 20,33 30,30 31,-9 0,-36 0,-72 0,-108 0,-37 0,-73 0,-110 0,-41 -1,-82 -2,-123 -1,-41 -2,-83 -4,-125 9,0 18,0 27,0 8,0 17,0 26,0 -4,89 -6,178 -6,266 -1,57 0,113 1,171 1,57 3,113 5,170l-58 0z"/>
  <path class="fil4" d="M4255 2958l-50 0c3,-101 4,-202 4,-302 1,-102 -1,-203 -4,-305l50 0c-3,104 -5,205 -5,304 0,98 2,200 5,303z"/>
  <path class="fil4" d="M4729 2959c-58,-105 -117,-207 -176,-306 -44,-72 -88,-143 -132,-213 -10,-16 -18,-23 -24,-20 -5,3 -7,10 -7,22 -1,38 -2,77 -2,115 0,38 0,76 0,114 0,98 2,193 5,288 -9,0 -18,0 -26,0 -9,0 -18,0 -26,0 4,-95 6,-193 6,-294 0,-107 -2,-211 -6,-313 14,0 28,0 42,0 13,0 28,0 43,0 24,45 49,90 75,135 27,45 54,89 81,134 21,34 42,69 63,103 21,35 43,69 64,103 20,33 30,30 31,-9 0,-36 0,-72 0,-108 0,-37 0,-73 0,-110 0,-41 -1,-82 -2,-123 -1,-41 -2,-83 -4,-125 9,0 18,0 27,0 8,0 17,0 26,0 -4,89 -6,178 -6,266 -1,57 0,113 1,171 1,57 3,113 5,170l-58 0z"/>
  <path class="fil4" d="M5410 2891c-14,10 -26,18 -36,23 -15,9 -29,16 -42,22 -18,8 -35,14 -51,18 -19,5 -38,9 -58,11 -12,1 -24,2 -37,2 -20,1 -40,0 -60,-3 -20,-3 -39,-7 -56,-13 -18,-6 -35,-13 -52,-21 -17,-9 -33,-19 -46,-30 -14,-11 -28,-23 -40,-37 -13,-14 -23,-29 -32,-44 -9,-15 -17,-32 -24,-50 -6,-17 -11,-36 -14,-57 -3,-19 -5,-39 -4,-60 0,-18 2,-37 6,-57 3,-18 8,-36 14,-52 6,-17 13,-33 22,-48 8,-14 17,-28 29,-42 11,-14 23,-26 36,-36 13,-11 27,-22 43,-30 14,-9 30,-16 48,-23 14,-5 32,-10 53,-15 20,-4 42,-6 67,-6 29,-1 56,0 80,3 23,3 46,9 68,16 14,5 28,12 45,20l-1 62c-10,-7 -19,-13 -28,-19 -8,-5 -18,-10 -29,-16 -1,0 -1,-1 -2,-1 -1,0 -2,-1 -3,-1 -2,-1 -4,-2 -5,-3 -2,-1 -4,-1 -5,-2 -3,-1 -5,-1 -5,-2 -10,-4 -24,-8 -41,-12 -15,-3 -31,-5 -49,-6 -12,-1 -20,-1 -27,-1 -16,0 -32,2 -49,5 -16,3 -31,7 -45,13 -13,5 -27,12 -41,20 -13,8 -25,17 -36,27 -11,10 -22,21 -32,33 -9,13 -18,26 -24,39 -8,14 -14,28 -19,42 -6,18 -10,34 -12,47 -2,14 -4,29 -4,45 -1,16 1,32 3,49 2,16 6,32 11,47 5,16 12,30 19,43 7,12 15,25 26,38 9,12 20,23 31,33 12,10 24,20 38,27 12,8 26,15 42,21 15,5 30,9 47,12 19,4 38,5 58,5 23,-1 46,-3 68,-9 18,-4 36,-10 54,-18 16,-8 31,-17 43,-27 5,-4 8,-9 8,-15 0,-5 1,-12 1,-19 1,-37 1,-74 1,-109 -1,-36 -3,-73 -8,-113l56 -1c-3,50 -4,96 -4,139 0,43 2,89 4,136z"/>
  <path class="fil4" d="M5865 2287c-18,-11 -34,-21 -48,-29 -15,-8 -32,-14 -52,-19 -36,-9 -71,-12 -103,-9 -27,4 -51,13 -72,28 -17,14 -30,30 -38,48 -8,17 -13,37 -13,59 0,29 7,52 21,70 13,18 37,35 72,51 12,5 30,12 55,22 10,4 15,6 16,7 19,6 34,11 46,16 35,14 63,29 85,46 24,19 42,41 54,65 14,29 21,62 21,100 0,27 -4,54 -12,78 -13,37 -36,67 -68,91 -21,16 -45,28 -71,36 -33,11 -69,16 -107,17 -44,0 -80,-4 -109,-12 -16,-4 -30,-9 -42,-15 -11,-6 -23,-11 -34,-16l-1 -78c17,12 32,22 48,32 15,10 30,18 46,23 23,9 53,14 89,14 23,0 45,-2 66,-8 28,-6 52,-18 74,-33 23,-18 39,-41 48,-67 6,-15 9,-33 9,-56 0,-26 -4,-50 -14,-71 -10,-20 -25,-37 -45,-51 -13,-10 -31,-19 -55,-30 -10,-4 -21,-8 -32,-12 -11,-4 -22,-9 -33,-13 -14,-5 -28,-10 -41,-15 -14,-6 -26,-11 -39,-18 -35,-16 -62,-36 -79,-59 -21,-28 -32,-63 -32,-107 0,-23 3,-44 10,-65 10,-31 27,-57 52,-78 31,-26 71,-42 121,-48 40,-4 81,-2 123,7 15,3 29,6 44,10 14,4 28,10 40,17l0 72z"/>
  <path class="fil4" d="M6095 2421c0,-14 -2,-23 -5,-25 -3,-2 -12,-4 -27,-4 -23,1 -44,1 -62,2 -18,0 -40,1 -67,2l0 -44c64,3 126,4 187,4 61,0 124,-1 188,-4l0 44c-26,-1 -47,-2 -66,-3 -17,0 -38,-1 -60,-1 -17,0 -27,2 -30,5 -4,2 -6,10 -6,22 -1,31 -2,61 -2,91 -1,30 -1,59 -1,89 -1,38 -1,76 -1,114 -1,38 0,76 1,113 0,50 1,94 3,132l-54 0c1,-20 1,-41 2,-62 0,-22 1,-43 1,-64 1,-39 2,-77 2,-116 1,-38 1,-77 1,-116 0,-56 -1,-116 -4,-179z"/>
  <path class="fil4" d="M6642 2351c14,50 30,100 49,149 19,48 37,97 54,144 19,52 38,104 59,157 22,53 44,105 68,156l-59 0c-9,-26 -18,-53 -28,-81 -10,-29 -22,-59 -34,-92 -7,-19 -14,-30 -20,-32 -6,-2 -22,-3 -48,-4 -27,-2 -55,-2 -84,-3 -28,0 -56,1 -84,2 -27,2 -44,3 -50,4 -6,2 -14,13 -23,34 -11,29 -22,57 -32,87 -10,29 -19,58 -29,85l-59 0c24,-51 46,-102 67,-155 21,-53 41,-104 60,-156 17,-47 35,-96 54,-145 19,-50 36,-100 50,-149 13,0 29,0 47,0 19,0 33,0 42,-1zm-154 314c-7,20 -10,31 -8,34 2,3 14,5 37,7 56,3 110,3 161,-1 21,-2 33,-4 35,-8 2,-4 -1,-16 -8,-38 -33,-88 -63,-167 -93,-238 -10,-21 -20,-21 -29,0 -16,32 -32,69 -48,112 -17,43 -33,87 -47,132z"/>
  <path class="fil4" d="M7221 2958c-20,-42 -42,-89 -68,-140 -21,-39 -45,-84 -72,-132 -7,-14 -13,-22 -17,-24 -4,-3 -15,-4 -33,-4 -19,-1 -36,-1 -52,0 -18,0 -28,1 -32,4 -3,2 -5,11 -5,26 1,16 1,32 1,47 0,16 1,31 1,47 1,29 1,59 2,88 1,30 2,59 3,89 -9,0 -18,0 -26,0 -9,0 -18,0 -27,0 2,-33 3,-67 4,-100 1,-33 2,-67 2,-100 1,-79 1,-153 0,-222 -1,-31 -2,-62 -3,-92 0,-31 -1,-62 -3,-93l153 0c14,0 29,0 44,0 15,0 28,2 39,4 20,4 39,12 55,23 15,11 28,25 38,41 13,23 20,50 20,81 0,19 -3,36 -8,52 -4,11 -9,22 -15,31 -7,9 -13,18 -21,26 -8,8 -16,15 -25,20 -10,5 -21,10 -34,14 -12,4 -18,7 -19,11 -1,3 2,13 9,28 18,38 35,73 53,105 15,29 31,58 47,86 17,29 33,57 50,84l-61 0zm-245 -566c-14,1 -22,3 -25,5 -3,2 -5,9 -5,22 0,14 -1,28 -1,42 0,14 -1,28 -1,41 0,14 -1,28 -1,41 0,14 0,28 0,42 0,15 1,25 4,28 3,3 11,4 27,5 11,1 22,1 34,1 11,0 23,0 36,0 21,0 39,-2 53,-5 17,-3 32,-8 47,-15 19,-11 33,-27 42,-46 7,-15 10,-32 10,-52 0,-15 -3,-29 -8,-42 -6,-18 -18,-33 -36,-45 -25,-15 -59,-23 -103,-23 -12,0 -24,0 -36,0 -13,0 -25,1 -37,1z"/>
  <path class="fil5 str1" d="M7354 3416l0 -1238 -523 0 1 -375 -2612 499 -11 -38 2946 -571 11 38 -296 66 1 342 522 0 1 1277 -40 0z"/>
  <path class="fil5" d="M3480 3401c-4,3 -9,7 -14,9 -6,3 -12,5 -16,7 -6,2 -12,3 -17,4 -7,1 -13,1 -18,1 -16,-1 -30,-3 -42,-9 -12,-5 -22,-13 -29,-24 -8,-9 -13,-21 -17,-36 -3,-14 -5,-30 -4,-47 1,-46 1,-93 0,-142l30 0c-1,49 -2,95 -1,140 0,13 1,24 3,34 2,11 6,21 10,30 6,9 13,16 21,21 10,6 21,8 35,8 14,0 25,-3 35,-8 9,-5 16,-12 22,-21 6,-8 10,-18 12,-29 2,-9 3,-21 4,-35 0,-26 0,-48 -1,-67 0,-18 -1,-43 -3,-73l31 0c-2,78 -2,162 1,251l-32 0c0,-2 0,-4 0,-5 1,-1 1,-3 1,-5 0,-10 -3,-11 -11,-4z"/>
  <path class="fil5" d="M3713 3180c10,-8 21,-14 34,-17 9,-3 19,-4 30,-4 8,1 14,1 19,2 6,1 12,3 17,4 8,3 14,7 21,11 6,6 12,11 16,17 4,5 7,12 11,20 3,9 5,18 6,26 2,12 3,24 2,36 0,22 -1,47 -1,75 0,11 0,22 1,34 0,11 0,22 1,33l-31 0c1,-14 1,-27 1,-41 0,-13 1,-26 1,-40 0,-10 0,-20 0,-29 0,-10 -1,-20 -1,-30 0,-6 0,-10 0,-13 0,-5 -1,-9 -1,-12 -1,-8 -3,-16 -5,-22 -2,-7 -5,-13 -9,-20 -4,-6 -9,-11 -14,-15 -6,-4 -13,-7 -20,-9 -6,-1 -12,-2 -19,-2 -11,0 -21,2 -30,5 -8,4 -15,8 -20,14 -6,6 -10,13 -14,21 -3,7 -6,15 -7,25 -1,9 -2,18 -2,28 0,25 0,46 0,63 0,11 0,23 1,35 0,12 1,26 2,42l-31 0c0,-11 1,-22 1,-33 0,-12 1,-23 1,-34 0,-10 0,-20 0,-30 0,-10 0,-20 0,-30 0,-26 0,-51 -1,-77 0,-8 0,-16 -1,-24 0,-9 0,-17 0,-25l31 0c0,4 0,7 0,10 0,10 3,12 11,6z"/>
  <path class="fil5" d="M4202 3401c-10,7 -21,12 -33,16 -12,3 -24,5 -35,5 -8,0 -14,0 -20,-1 -6,-1 -12,-2 -17,-3 -13,-3 -25,-8 -36,-15 -10,-5 -19,-13 -27,-23 -7,-8 -13,-19 -18,-30 -5,-12 -8,-24 -10,-37 -1,-7 -1,-14 -1,-22 0,-16 3,-31 8,-46 5,-14 12,-27 21,-39 9,-11 20,-21 33,-29 14,-8 28,-13 44,-16 8,-1 16,-2 24,-2 10,0 22,1 34,4 12,2 22,6 32,11 8,5 12,3 12,-7 0,-22 0,-43 0,-63 -1,-20 -1,-42 -2,-67l32 0c-2,65 -3,128 -3,190 0,62 1,125 3,190l-33 0c0,-3 0,-6 1,-10 0,-9 -3,-10 -9,-6zm3 -34c4,-4 6,-10 7,-17 0,-25 1,-45 1,-62 0,-16 0,-36 -1,-59 0,-8 -3,-14 -8,-18 -9,-7 -18,-13 -28,-17 -13,-6 -27,-8 -40,-8 -12,0 -23,1 -33,5 -10,4 -19,9 -27,15 -8,7 -15,15 -20,23 -5,9 -9,18 -12,29 -3,10 -4,21 -4,33 0,7 0,13 1,18 2,13 5,24 10,34 5,11 11,20 19,27 8,8 18,14 29,18 11,5 24,7 38,7 27,0 50,-9 68,-28z"/>
  <path class="fil5" d="M4427 3257c28,2 54,2 78,2 27,0 52,0 76,-2 10,0 13,-4 11,-11 -5,-18 -16,-33 -31,-45 -16,-11 -34,-17 -53,-17 -21,0 -39,6 -55,18 -15,11 -26,25 -32,43 -4,8 -2,12 6,12zm182 149c-15,6 -30,10 -44,13 -2,0 -6,1 -12,2 -5,0 -9,1 -11,1 -2,0 -4,0 -6,0 -2,1 -4,1 -6,1 -2,0 -4,0 -6,0 -2,0 -4,0 -6,0 -11,0 -22,-1 -32,-2 -9,-2 -18,-4 -28,-8 -9,-3 -17,-7 -24,-12 -7,-5 -14,-10 -20,-16 -6,-6 -12,-13 -17,-20 -4,-8 -8,-15 -11,-23 -3,-8 -5,-17 -7,-27 -1,-9 -2,-19 -1,-29 0,-9 1,-18 3,-26 1,-8 4,-16 7,-24 3,-7 6,-14 11,-21 4,-7 9,-13 15,-19 6,-6 12,-11 18,-15 6,-4 13,-8 22,-12 7,-3 16,-5 25,-7 8,-2 17,-3 28,-3 9,0 19,1 27,2 9,2 17,4 24,8 8,3 15,7 22,11 6,4 12,10 18,16 6,5 10,12 15,19 4,6 7,13 11,21 3,9 5,17 6,24 2,8 3,16 3,25l0 0 0 0 0 0 0 0 0 1 0 0 0 0 0 0c-8,0 -24,0 -49,-1 -26,0 -52,0 -80,0 -31,0 -57,1 -78,2 -4,1 -8,1 -10,2 -2,1 -3,4 -2,10 1,14 4,27 9,39 5,12 12,22 21,30 9,9 20,16 33,21 13,4 28,7 45,7 16,-1 30,-3 43,-7 8,-2 15,-5 22,-9 7,-3 14,-7 21,-11l1 37z"/>
  <path class="fil5" d="M4809 3180c9,-7 17,-12 26,-16 9,-4 23,-6 41,-5l0 31c-17,-6 -30,-6 -41,0 -11,6 -21,14 -28,23 -5,7 -7,15 -7,25 -1,32 -1,62 -1,91 1,28 2,58 3,88l-31 0c3,-79 3,-163 0,-253l31 0c0,3 0,5 0,6 0,2 0,3 0,6 0,2 1,4 2,5 2,2 4,1 5,-1z"/>
  <path class="fil5" d="M5127 3291c0,-18 4,-35 10,-51 6,-16 16,-30 29,-43 12,-12 25,-21 40,-27 16,-8 34,-11 54,-11 18,0 34,3 51,9 15,7 29,16 42,29 7,7 12,14 17,21 15,21 22,46 22,73 0,17 -4,34 -11,50 -7,17 -16,32 -28,44 -13,12 -27,22 -43,28 -16,7 -33,10 -50,10 -20,0 -38,-4 -54,-11 -15,-6 -28,-15 -40,-27 -13,-13 -23,-27 -29,-43 -6,-16 -10,-33 -10,-51zm32 0c0,17 3,33 9,46 4,10 11,20 20,29 8,9 18,16 28,21 14,7 28,10 44,10 15,0 30,-3 43,-10 10,-5 19,-12 28,-21 10,-10 17,-21 22,-34 5,-13 7,-26 7,-41 0,-18 -4,-36 -12,-51 -5,-9 -11,-17 -17,-24 -10,-10 -20,-17 -31,-23 -13,-5 -26,-8 -40,-8 -16,0 -31,3 -44,10 -10,5 -20,12 -28,21 -9,9 -16,20 -21,31 -6,13 -8,28 -8,44z"/>
  <path class="fil5" d="M5565 3180c10,-8 21,-14 34,-17 9,-3 19,-4 30,-4 8,1 14,1 19,2 7,1 12,3 17,4 8,3 14,7 21,11 6,6 12,11 16,17 4,5 7,12 11,20 3,9 5,18 6,26 2,12 3,24 2,36 0,22 -1,47 -1,75 0,11 0,22 1,34 0,11 0,22 1,33l-31 0c1,-14 1,-27 1,-41 0,-13 1,-26 1,-40 0,-10 0,-20 0,-29 0,-10 -1,-20 -1,-30 0,-6 0,-10 0,-13 0,-5 -1,-9 -1,-12 -1,-8 -3,-16 -5,-22 -2,-7 -5,-13 -9,-20 -4,-6 -9,-11 -14,-15 -6,-4 -12,-7 -20,-9 -6,-1 -12,-2 -19,-2 -11,0 -21,2 -30,5 -8,4 -15,8 -20,14 -6,6 -10,13 -14,21 -3,7 -6,15 -7,25 -1,9 -2,18 -2,28 0,25 0,46 0,63 0,11 0,23 1,35 0,12 1,26 2,42l-31 0c0,-11 1,-22 1,-33 0,-12 1,-23 1,-34 0,-10 0,-20 0,-30 0,-10 0,-20 0,-30 0,-26 0,-51 -1,-77 0,-8 0,-16 0,-24 -1,-9 -1,-17 -1,-25l31 0c0,4 0,7 0,10 0,10 3,12 11,6z"/>
  <path class="fil5" d="M5907 3257c28,2 54,2 77,2 28,0 53,0 77,-2 9,0 13,-4 11,-11 -5,-18 -16,-33 -32,-45 -15,-11 -33,-17 -53,-17 -20,0 -38,6 -54,18 -15,11 -26,25 -33,43 -3,8 -1,12 7,12zm182 149c-15,6 -30,10 -45,13 -2,0 -5,1 -11,2 -5,0 -9,1 -11,1 -2,0 -4,0 -6,0 -2,1 -4,1 -6,1 -2,0 -4,0 -6,0 -2,0 -4,0 -6,0 -11,0 -22,-1 -32,-2 -9,-2 -18,-4 -28,-8 -9,-3 -17,-7 -24,-12 -8,-5 -14,-10 -21,-16 -6,-6 -11,-13 -16,-20 -4,-8 -8,-15 -11,-23 -3,-8 -5,-17 -7,-27 -1,-9 -2,-19 -1,-29 0,-9 1,-18 3,-26 1,-8 4,-16 7,-24 2,-7 6,-14 11,-21 4,-7 9,-13 15,-19 6,-6 12,-11 18,-15 5,-4 13,-8 22,-12 7,-3 15,-5 25,-7 8,-2 17,-3 28,-3 9,0 18,1 27,2 9,2 17,4 24,8 7,3 15,7 22,11 6,4 12,10 18,16 5,5 10,12 15,19 3,6 7,13 10,21 4,9 6,17 7,24 2,8 2,16 2,25l0 0 0 0 0 0 0 0 0 1 0 0 0 0 0 0c-7,0 -23,0 -49,-1 -25,0 -51,0 -79,0 -31,0 -57,1 -78,2 -5,1 -8,1 -10,2 -2,1 -3,4 -2,10 1,14 4,27 9,39 5,12 12,22 21,30 9,9 20,16 33,21 13,4 27,7 44,7 17,-1 31,-3 44,-7 8,-2 15,-5 22,-9 7,-3 14,-7 21,-11l1 37z"/>
  <path class="fil5" d="M6373 3375c6,4 11,7 17,9 6,3 11,5 17,7 6,2 12,3 18,4 4,1 10,1 18,1 7,1 13,0 20,-2 7,-1 13,-3 20,-7 6,-3 11,-8 15,-13 5,-7 7,-13 8,-21 1,-6 0,-12 -1,-17 -2,-6 -5,-10 -9,-15 -4,-4 -10,-8 -16,-11 -8,-3 -15,-6 -24,-7 -12,-3 -22,-5 -30,-9 -10,-3 -18,-8 -25,-13 -8,-6 -13,-13 -17,-21 -5,-9 -7,-19 -7,-31 0,-11 2,-21 7,-30 4,-9 10,-16 19,-23 7,-5 16,-10 26,-13 10,-3 20,-5 31,-5 12,0 23,1 34,3 12,2 22,5 31,8l-1 35c-6,-4 -11,-7 -16,-9 -5,-3 -10,-5 -15,-6 -3,-1 -9,-3 -15,-4 -8,-1 -14,-1 -18,-1 -6,0 -12,1 -18,3 -7,2 -12,4 -17,8 -6,3 -10,8 -13,13 -3,6 -5,12 -5,19 0,7 2,14 6,19 3,4 7,9 13,12 5,3 11,6 19,9 9,3 17,5 22,6 11,2 20,5 27,9 9,4 17,9 24,15 6,6 11,14 15,23 4,9 5,19 5,32 -1,12 -4,23 -9,32 -6,9 -13,17 -21,22 -9,6 -18,11 -29,13 -11,3 -22,4 -33,4 -32,-1 -56,-6 -73,-14l0 -34z"/>
  <path class="fil5" d="M6822 3401c-5,3 -9,7 -15,9 -6,3 -11,5 -16,7 -6,2 -11,3 -17,4 -6,1 -12,1 -17,1 -16,-1 -30,-3 -43,-9 -11,-5 -21,-13 -29,-24 -7,-9 -13,-21 -16,-36 -4,-14 -5,-30 -4,-47 1,-46 1,-93 -1,-142l31 0c-2,49 -2,95 -1,140 0,13 1,24 3,34 2,11 5,21 10,30 5,9 12,16 21,21 9,6 21,8 35,8 13,0 25,-3 35,-8 9,-5 16,-12 22,-21 5,-8 9,-18 12,-29 2,-9 3,-21 3,-35 0,-26 0,-48 0,-67 0,-18 -1,-43 -3,-73l31 0c-3,78 -3,162 0,251l-31 0c0,-2 0,-4 0,-5 0,-1 0,-3 1,-5 0,-10 -4,-11 -11,-4z"/>
  <path class="fil5" d="M7055 3180c9,-8 21,-14 34,-17 9,-3 19,-4 30,-4 7,1 14,1 19,2 6,1 12,3 17,4 7,3 14,7 20,11 7,6 12,11 16,17 4,5 8,12 11,20 4,9 6,18 7,26 2,12 2,24 2,36 -1,22 -1,47 -1,75 0,11 0,22 0,34 1,11 1,22 1,33l-30 0c0,-14 1,-27 1,-41 0,-13 0,-26 0,-40 0,-10 0,-20 0,-29 0,-10 0,-20 0,-30 0,-6 0,-10 0,-13 -1,-5 -1,-9 -1,-12 -2,-8 -3,-16 -5,-22 -2,-7 -5,-13 -9,-20 -5,-6 -9,-11 -14,-15 -6,-4 -13,-7 -20,-9 -6,-1 -12,-2 -20,-2 -10,0 -20,2 -29,5 -8,4 -15,8 -21,14 -5,6 -10,13 -13,21 -4,7 -6,15 -7,25 -2,9 -2,18 -2,28 -1,25 -1,46 0,63 0,11 0,23 1,35 0,12 1,26 2,42l-31 0c0,-11 0,-22 1,-33 0,-12 0,-23 1,-34 0,-10 0,-20 0,-30 0,-10 0,-20 0,-30 0,-26 0,-51 -1,-77 0,-8 -1,-16 -1,-24 0,-9 0,-17 0,-25l31 0c0,4 -1,7 -1,10 0,10 4,12 12,6z"/>
 </g>
</svg>
